# Blender v2.92.0 OBJ File: ''
# www.blender.org
mtllib fox.mtl
o Cube_Cube.001
v 0.657749 -0.055226 2.403982
v 0.979640 -2.479943 1.704267
v 0.979640 -0.055226 1.704267
v -0.041965 -2.479943 1.704267
v -0.671866 -2.479943 2.725873
v -1.063571 -2.479943 1.704267
v -0.741681 -0.055226 2.403982
v -1.063573 2.369490 1.704267
v -1.063572 -0.055227 1.704267
v -0.041967 2.369491 1.704267
v 0.695709 2.369491 2.725873
v 0.979639 2.369491 1.704267
v -0.741681 -0.055226 1.004552
v -0.041967 2.369491 0.682661
v -0.041966 0.090512 0.452916
v -0.041966 -0.055226 2.507467
v -0.041967 2.369491 2.725873
v -0.779643 2.369490 2.725873
v -0.041966 -2.100849 2.725873
v 0.657749 -0.055226 1.004552
v 0.979639 2.369491 0.682661
v -0.041965 -2.479943 0.682661
v 0.979640 -2.479943 0.682661
v -1.063573 2.369490 0.682661
v -1.063571 -2.479943 0.682661
v 0.587935 -2.479943 2.725873
vt 0.625000 0.125000
vt 0.500000 0.250000
vt 0.500000 0.125000
vt 0.500000 0.375000
vt 0.625000 0.500000
vt 0.500000 0.500000
vt 0.625000 0.625000
vt 0.500000 0.750000
vt 0.500000 0.625000
vt 0.500000 0.875000
vt 0.625000 1.000000
vt 0.500000 1.000000
vt 0.375000 0.625000
vt 0.250000 0.750000
vt 0.250000 0.625000
vt 0.750000 0.625000
vt 0.875000 0.750000
vt 0.750000 0.750000
vt 0.625000 0.750000
vt 0.750000 0.500000
vt 0.875000 0.625000
vt 0.125000 0.625000
vt 0.125000 0.750000
vt 0.250000 0.500000
vt 0.125000 0.500000
vt 0.375000 1.000000
vt 0.375000 0.875000
vt 0.375000 0.750000
vt 0.375000 0.500000
vt 0.375000 0.375000
vt 0.375000 0.250000
vt 0.625000 0.250000
vt 0.375000 0.125000
vt 0.500000 0.000000
vt 0.375000 0.000000
vt 0.625000 0.375000
vt 0.625000 0.875000
vt 0.875000 0.500000
vt 0.625000 0.000000
vn 0.9085 0.0000 0.4179
vn 0.0000 -1.0000 -0.0000
vn -0.9085 -0.0000 0.4179
vn -0.0000 1.0000 0.0000
vn -0.6272 0.0781 -0.7749
vn -0.0000 -0.0897 0.9960
vn -0.1450 -0.1324 0.9805
vn -0.0776 0.1290 0.9886
vn 0.1455 0.1050 0.9838
vn 0.0000 -0.1316 -0.9913
vn 0.0000 0.1316 -0.9913
vn -0.6084 -0.0706 -0.7904
vn -0.9913 -0.1316 0.0000
vn -0.9913 0.1316 0.0000
vn 0.9913 0.1316 0.0000
vn 0.9913 -0.1316 0.0000
vn 0.9335 0.0206 0.3579
vn 0.4914 -0.8165 0.3030
vn -0.9622 -0.0506 0.2674
vn 0.1450 -0.1324 0.9805
vn -0.1455 0.1050 0.9838
vn 0.0776 0.1290 0.9886
vn 0.6272 0.0781 -0.7749
vn 0.6084 -0.0706 -0.7904
vn -0.9085 -0.0000 -0.4179
vn -0.9335 0.0206 0.3579
vn -0.4914 -0.8165 0.3030
vn 0.9085 0.0000 -0.4179
vn 0.9622 -0.0506 0.2674
usemtl None.004
s 1
f 1/1/1 2/2/1 3/3/1
f 4/4/2 5/5/2 6/6/2
f 7/7/3 8/8/3 9/9/3
f 10/10/4 11/11/4 12/12/4
f 13/13/5 14/14/5 15/15/5
f 16/16/6 11/17/6 17/18/6
f 16/16/7 18/19/7 7/7/7
f 19/20/8 7/7/8 5/5/8
f 19/20/9 1/21/9 16/16/9
f 20/22/10 14/14/10 21/23/10
f 22/24/11 20/22/11 23/25/11
f 22/24/12 13/13/12 15/15/12
f 10/10/4 21/26/4 14/27/4
f 8/8/4 14/27/4 24/28/4
f 18/19/4 10/10/4 8/8/4
f 13/13/13 8/8/13 24/28/13
f 6/6/14 13/13/14 25/29/14
f 6/6/3 7/7/3 9/9/3
f 4/4/2 25/29/2 22/30/2
f 2/2/2 22/30/2 23/31/2
f 26/32/2 4/4/2 2/2/2
f 20/33/15 2/2/15 23/31/15
f 12/34/16 20/33/16 21/35/16
f 12/34/1 1/1/1 3/3/1
f 1/1/17 26/32/17 2/2/17
f 4/4/18 19/36/18 5/5/18
f 7/7/19 18/19/19 8/8/19
f 10/10/4 17/37/4 11/11/4
f 13/13/10 24/28/10 14/14/10
f 16/16/20 1/21/20 11/17/20
f 16/16/6 17/18/6 18/19/6
f 19/20/21 16/16/21 7/7/21
f 19/20/22 26/38/22 1/21/22
f 20/22/23 15/15/23 14/14/23
f 22/24/24 15/15/24 20/22/24
f 22/24/11 25/29/11 13/13/11
f 10/10/4 12/12/4 21/26/4
f 8/8/4 10/10/4 14/27/4
f 18/19/4 17/37/4 10/10/4
f 13/13/25 9/9/25 8/8/25
f 6/6/25 9/9/25 13/13/25
f 6/6/26 5/5/26 7/7/26
f 4/4/2 6/6/2 25/29/2
f 2/2/2 4/4/2 22/30/2
f 26/32/27 19/36/27 4/4/27
f 20/33/28 3/3/28 2/2/28
f 12/34/28 3/3/28 20/33/28
f 12/34/29 11/39/29 1/1/29
o Cube.001_Cube.001
v -0.565100 -1.965323 -1.585817
v -0.565100 -1.965323 1.585817
v -0.565100 -2.294782 1.585817
v -0.565100 -2.294782 -1.585817
v -0.894560 -2.294783 1.585817
v -0.894560 -2.294783 -1.585817
v -0.894560 -1.965323 1.585817
v -0.894560 -1.965323 -1.585817
vt 0.625000 0.000000
vt 0.375000 0.000000
vt 0.375000 0.250000
vt 0.625000 0.250000
vt 0.375000 0.500000
vt 0.625000 0.500000
vt 0.375000 0.750000
vt 0.625000 0.750000
vt 0.375000 1.000000
vt 0.125000 0.500000
vt 0.125000 0.750000
vt 0.875000 0.500000
vt 0.625000 1.000000
vt 0.875000 0.750000
vn 1.0000 -0.0000 0.0000
vn 0.0000 -1.0000 0.0000
vn -1.0000 0.0000 0.0000
vn 0.0000 1.0000 0.0000
vn 0.0000 0.0000 1.0000
vn 0.0000 0.0000 -1.0000
usemtl None.004
s 1
f 27/40/30 28/41/30 29/42/30
f 30/43/31 29/42/31 31/44/31
f 32/45/32 31/44/32 33/46/32
f 34/47/33 33/46/33 28/48/33
f 31/44/34 29/49/34 28/50/34
f 30/51/35 32/45/35 34/47/35
f 27/40/30 29/42/30 30/43/30
f 30/43/31 31/44/31 32/45/31
f 32/45/32 33/46/32 34/47/32
f 34/47/33 28/48/33 27/52/33
f 31/44/34 28/50/34 33/46/34
f 30/51/35 34/47/35 27/53/35
o Cube.002_Cube.001
v 0.769380 2.292839 -1.585817
v 0.769380 2.292839 1.585817
v 0.769380 1.963379 1.585817
v 0.769380 1.963379 -1.585817
v 0.439921 1.963379 1.585817
v 0.439921 1.963379 -1.585817
v 0.439920 2.292838 1.585817
v 0.439920 2.292838 -1.585817
vt 0.625000 0.000000
vt 0.375000 0.000000
vt 0.375000 0.250000
vt 0.625000 0.250000
vt 0.375000 0.500000
vt 0.625000 0.500000
vt 0.375000 0.750000
vt 0.625000 0.750000
vt 0.375000 1.000000
vt 0.125000 0.500000
vt 0.125000 0.750000
vt 0.875000 0.500000
vt 0.625000 1.000000
vt 0.875000 0.750000
vn 1.0000 -0.0000 0.0000
vn 0.0000 -1.0000 0.0000
vn -1.0000 -0.0000 0.0000
vn -0.0000 1.0000 0.0000
vn -0.0000 0.0000 1.0000
vn -0.0000 0.0000 -1.0000
usemtl None.004
s 1
f 35/54/36 36/55/36 37/56/36
f 38/57/37 37/56/37 39/58/37
f 40/59/38 39/58/38 41/60/38
f 42/61/39 41/60/39 36/62/39
f 39/58/40 37/63/40 36/64/40
f 38/65/41 40/59/41 42/61/41
f 35/54/36 37/56/36 38/57/36
f 38/57/37 39/58/37 40/59/37
f 40/59/38 41/60/38 42/61/38
f 42/61/39 36/62/39 35/66/39
f 39/58/40 36/64/40 41/60/40
f 38/65/41 42/61/41 35/67/41
o Cube.003_Cube.001
v -0.565101 2.292839 -1.585817
v -0.565101 2.292839 1.585817
v -0.565100 1.963379 1.585817
v -0.565100 1.963379 -1.585817
v -0.894560 1.963379 1.585817
v -0.894560 1.963379 -1.585817
v -0.894560 2.292838 1.585817
v -0.894560 2.292838 -1.585817
vt 0.625000 0.000000
vt 0.375000 0.000000
vt 0.375000 0.250000
vt 0.625000 0.250000
vt 0.375000 0.500000
vt 0.625000 0.500000
vt 0.375000 0.750000
vt 0.625000 0.750000
vt 0.375000 1.000000
vt 0.125000 0.500000
vt 0.125000 0.750000
vt 0.875000 0.500000
vt 0.625000 1.000000
vt 0.875000 0.750000
vn 1.0000 0.0000 0.0000
vn 0.0000 -1.0000 0.0000
vn -1.0000 0.0000 0.0000
vn -0.0000 1.0000 0.0000
vn -0.0000 0.0000 1.0000
vn -0.0000 0.0000 -1.0000
usemtl None.004
s 1
f 43/68/42 44/69/42 45/70/42
f 46/71/43 45/70/43 47/72/43
f 48/73/44 47/72/44 49/74/44
f 50/75/45 49/74/45 44/76/45
f 47/72/46 45/77/46 44/78/46
f 46/79/47 48/73/47 50/75/47
f 43/68/42 45/70/42 46/71/42
f 46/71/43 47/72/43 48/73/43
f 48/73/44 49/74/44 50/75/44
f 50/75/45 44/76/45 43/80/45
f 47/72/46 44/78/46 49/74/46
f 46/79/47 50/75/47 43/81/47
o Cube.004_Cube.002
v 0.972923 -1.929043 -1.585817
v 0.972923 -1.929043 1.585817
v 0.972923 -2.258503 1.585817
v 0.972923 -2.258503 -1.585817
v 0.643463 -2.258503 1.585817
v 0.643463 -2.258503 -1.585817
v 0.643463 -1.929043 1.585817
v 0.643463 -1.929043 -1.585817
vt 0.625000 0.000000
vt 0.375000 0.000000
vt 0.375000 0.250000
vt 0.625000 0.250000
vt 0.375000 0.500000
vt 0.625000 0.500000
vt 0.375000 0.750000
vt 0.625000 0.750000
vt 0.375000 1.000000
vt 0.125000 0.500000
vt 0.125000 0.750000
vt 0.875000 0.500000
vt 0.625000 1.000000
vt 0.875000 0.750000
vn 1.0000 -0.0000 0.0000
vn 0.0000 -1.0000 0.0000
vn -1.0000 0.0000 0.0000
vn 0.0000 1.0000 0.0000
vn 0.0000 0.0000 1.0000
vn 0.0000 0.0000 -1.0000
usemtl None.004
s 1
f 51/82/48 52/83/48 53/84/48
f 54/85/49 53/84/49 55/86/49
f 56/87/50 55/86/50 57/88/50
f 58/89/51 57/88/51 52/90/51
f 55/86/52 53/91/52 52/92/52
f 54/93/53 56/87/53 58/89/53
f 51/82/48 53/84/48 54/85/48
f 54/85/49 55/86/49 56/87/49
f 56/87/50 57/88/50 58/89/50
f 58/89/51 52/90/51 51/94/51
f 55/86/52 52/92/52 57/88/52
f 54/93/53 58/89/53 51/95/53
o Cube.005_Cube.001
v 0.346247 -3.733909 1.054601
v 0.229325 -1.821997 2.449028
v 0.229325 -2.088582 2.642615
v 0.346247 -3.903914 1.591637
v -0.100134 -2.088583 2.642615
v -0.100134 -1.821997 2.449028
v -0.217055 -3.733909 1.054601
v -0.217055 -3.903914 1.591637
v -0.064762 -4.593899 0.901237
v 0.193954 -4.593899 0.901237
v -0.064762 -4.515818 0.654585
v 0.193954 -4.515818 0.654585
vt 0.625000 0.000000
vt 0.375000 0.000000
vt 0.375000 0.250000
vt 0.625000 0.250000
vt 0.375000 0.500000
vt 0.375000 0.750000
vt 0.625000 0.750000
vt 0.375000 1.000000
vt 0.125000 0.500000
vt 0.125000 0.750000
vt 0.625000 0.500000
vt 0.625000 0.500000
vt 0.875000 0.500000
vt 0.625000 0.750000
vt 0.625000 0.250000
vt 0.625000 0.000000
vt 0.625000 1.000000
vt 0.625000 1.000000
vt 0.875000 0.750000
vn 0.9987 0.0305 0.0420
vn 0.0000 -0.5010 0.8654
vn -0.9987 0.0305 0.0420
vn 0.0000 0.5893 -0.8079
vn -0.0000 0.5876 0.8092
vn 0.0000 -0.7073 0.7069
vn 0.0000 -0.9534 -0.3018
vn -0.9849 -0.1651 -0.0523
vn 0.9849 -0.1651 -0.0523
vn 0.0000 0.4554 -0.8903
vn 0.9984 0.0543 0.0172
vn -0.9984 0.0543 0.0172
usemtl None.004
s 1
f 59/96/54 60/97/54 61/98/54
f 62/99/55 61/98/55 63/100/55
f 63/100/56 64/101/56 65/102/56
f 65/102/57 64/101/57 60/103/57
f 63/100/58 61/104/58 60/105/58
f 62/99/59 66/106/59 67/107/59
f 68/108/60 67/107/60 69/109/60
f 66/106/61 65/102/61 69/109/61
f 62/99/62 68/110/62 70/111/62
f 65/102/63 59/112/63 70/113/63
f 59/96/64 61/98/64 62/99/64
f 62/99/55 63/100/55 66/106/55
f 63/100/65 65/102/65 66/106/65
f 65/102/57 60/103/57 59/112/57
f 63/100/58 60/105/58 64/101/58
f 62/99/59 67/107/59 68/110/59
f 68/108/60 69/109/60 70/114/60
f 66/106/61 69/109/61 67/107/61
f 62/99/62 70/111/62 59/96/62
f 65/102/63 70/113/63 69/109/63
o Cube.006_Cube.001
v -0.292746 2.887889 3.513215
v -1.161308 2.952208 3.949086
v -0.292746 2.676758 3.513215
v -0.971313 2.676758 2.924291
v -1.280600 2.952208 3.845553
v -0.971313 2.887889 2.924291
v -1.280600 2.989324 3.845553
v -1.161308 2.989325 3.949086
vt 0.375000 0.000000
vt 0.625000 0.250000
vt 0.375000 0.250000
vt 0.375000 0.500000
vt 0.625000 0.500000
vt 0.375000 0.750000
vt 0.625000 0.750000
vt 0.375000 1.000000
vt 0.125000 0.750000
vt 0.125000 0.500000
vt 0.875000 0.500000
vt 0.625000 0.000000
vt 0.625000 1.000000
vt 0.875000 0.750000
vn 0.4485 0.0000 0.8938
vn -0.1921 -0.9561 0.2214
vn -0.9480 0.0000 -0.3183
vn 0.0735 0.9937 -0.0847
vn 0.6555 0.0000 -0.7552
vn -0.6555 0.0000 0.7552
usemtl None.004
s 1
f 71/115/66 72/116/66 73/117/66
f 72/116/67 74/118/67 73/117/67
f 75/119/68 76/120/68 74/118/68
f 77/121/69 71/122/69 76/120/69
f 74/118/70 71/123/70 73/124/70
f 72/125/71 77/121/71 75/119/71
f 71/115/66 78/126/66 72/116/66
f 72/116/67 75/119/67 74/118/67
f 75/119/68 77/121/68 76/120/68
f 77/121/69 78/127/69 71/122/69
f 74/118/70 76/120/70 71/123/70
f 72/125/71 78/128/71 77/121/71
o Cube.007_Cube.001
v 0.961085 2.887889 2.925598
v 1.247410 2.952208 3.854254
v 0.961085 2.676758 2.925598
v 0.268109 2.676758 3.497499
v 1.125584 2.952208 3.954794
v 0.268109 2.887889 3.497499
v 1.125584 2.989325 3.954794
v 1.247410 2.989325 3.854254
vt 0.375000 0.000000
vt 0.625000 0.250000
vt 0.375000 0.250000
vt 0.375000 0.500000
vt 0.625000 0.500000
vt 0.375000 0.750000
vt 0.625000 0.750000
vt 0.375000 1.000000
vt 0.125000 0.750000
vt 0.125000 0.500000
vt 0.875000 0.500000
vt 0.625000 0.000000
vt 0.625000 1.000000
vt 0.875000 0.750000
vn 0.9556 0.0000 -0.2946
vn 0.1866 -0.9561 0.2261
vn -0.4706 0.0000 0.8824
vn -0.0714 0.9937 -0.0865
vn -0.6365 0.0000 -0.7713
vn 0.6365 0.0000 0.7713
usemtl None.004
s 1
f 79/129/72 80/130/72 81/131/72
f 80/130/73 82/132/73 81/131/73
f 83/133/74 84/134/74 82/132/74
f 85/135/75 79/136/75 84/134/75
f 82/132/76 79/137/76 81/138/76
f 80/139/77 85/135/77 83/133/77
f 79/129/72 86/140/72 80/130/72
f 80/130/73 83/133/73 82/132/73
f 83/133/74 85/135/74 84/134/74
f 85/135/75 86/141/75 79/136/75
f 82/132/76 84/134/76 79/137/76
f 80/139/77 86/142/77 85/135/77
o Cube.008_Cube.001
v 0.820862 3.414342 3.347235
v 0.958034 2.414342 2.485183
v 0.958033 3.414342 2.276121
v -0.041966 1.723437 2.482143
v -0.672033 2.414342 3.213348
v -1.041966 2.414342 2.479102
v -1.041967 3.414342 2.273081
v -0.262799 4.414342 2.287892
v -0.317820 4.414342 2.067060
v -0.041967 4.763649 2.067060
v 0.178866 4.414342 2.287892
v 0.233886 4.414342 2.067060
v -0.041967 3.414342 1.633453
v -0.262799 4.414342 1.846227
v -0.041967 4.414342 1.791206
v -0.041967 3.414342 3.588236
v -0.041967 4.414342 2.342913
v -0.904795 3.414342 3.341988
v 0.588100 2.414342 3.221010
v -0.041966 2.414342 3.479591
v 0.178866 4.414342 1.846227
v 0.958033 3.414342 1.839596
v 0.958034 2.414342 1.839596
v -1.041966 2.414342 1.839596
v -0.041966 2.414342 1.155738
v -1.041967 3.414342 1.839596
vt 0.625000 0.125000
vt 0.500000 0.250000
vt 0.500000 0.125000
vt 0.500000 0.375000
vt 0.625000 0.500000
vt 0.500000 0.500000
vt 0.500000 0.625000
vt 0.625000 0.750000
vt 0.500000 0.750000
vt 0.500000 0.875000
vt 0.625000 1.000000
vt 0.500000 1.000000
vt 0.250000 0.625000
vt 0.375000 0.750000
vt 0.250000 0.750000
vt 0.750000 0.625000
vt 0.875000 0.750000
vt 0.750000 0.750000
vt 0.625000 0.625000
vt 0.875000 0.500000
vt 0.750000 0.500000
vt 0.125000 0.750000
vt 0.125000 0.625000
vt 0.125000 0.500000
vt 0.375000 0.500000
vt 0.250000 0.500000
vt 0.375000 1.000000
vt 0.375000 0.875000
vt 0.375000 0.625000
vt 0.375000 0.375000
vt 0.375000 0.250000
vt 0.625000 0.250000
vt 0.375000 0.125000
vt 0.500000 0.000000
vt 0.375000 0.000000
vt 0.625000 0.000000
vt 0.625000 0.375000
vt 0.625000 0.875000
vt 0.875000 0.625000
vn 0.9915 0.0265 0.1270
vn -0.5470 -0.7905 0.2756
vn -0.7753 0.6013 0.1932
vn -0.7704 0.6079 0.1922
vn -0.7702 0.6081 0.1923
vn 0.7702 0.6082 0.1919
vn 0.7704 0.6080 0.1919
vn 0.7704 0.6081 0.1918
vn -0.2390 0.1513 -0.9592
vn 0.1541 0.7704 0.6186
vn -0.1766 0.7655 0.6187
vn -0.2697 -0.1844 0.9451
vn 0.3778 -0.1000 0.9205
vn 0.1992 0.1617 -0.9665
vn 0.2019 0.0000 -0.9794
vn -0.5251 0.3668 -0.7679
vn 0.1919 0.6082 -0.7702
vn -0.1919 0.6082 -0.7702
vn -0.7702 0.6082 0.1919
vn -0.7734 0.6039 -0.1927
vn -0.7719 0.6060 -0.1923
vn -0.7704 0.6080 -0.1920
vn -1.0000 -0.0000 0.0000
vn -0.9915 0.0262 0.1272
vn -0.3012 -0.8457 -0.4405
vn 0.3012 -0.8457 -0.4405
vn 0.5460 -0.7915 0.2745
vn 1.0000 0.0000 0.0000
vn 0.7719 0.6060 -0.1923
vn 0.7734 0.6039 -0.1927
vn 0.7704 0.6080 -0.1920
vn 0.7751 0.6016 0.1931
vn 0.8637 -0.2558 0.4342
vn -0.2339 -0.7992 0.5536
vn -0.7855 0.6106 0.1008
vn 0.1919 0.6082 0.7702
vn -0.1992 0.1617 -0.9665
vn 0.1728 0.7664 0.6187
vn -0.1541 0.7704 0.6186
vn -0.3873 -0.0996 0.9166
vn 0.2646 -0.1811 0.9472
vn 0.2390 0.1513 -0.9592
vn 0.5251 0.3668 -0.7679
vn -0.2019 -0.0000 -0.9794
vn 0.7702 0.6082 -0.1919
vn -0.7702 0.6082 -0.1919
vn -0.1919 0.6082 0.7702
vn -0.8099 0.5865 0.0000
vn -0.8631 -0.2568 0.4349
vn -0.5684 -0.8227 0.0000
vn 0.5684 -0.8227 0.0000
vn 0.2276 -0.8005 0.5545
vn 0.8099 0.5865 0.0000
vn 0.7854 0.6108 0.1006
usemtl None.004
s 1
f 87/143/78 88/144/78 89/145/78
f 90/146/79 91/147/79 92/148/79
f 93/149/80 94/150/81 95/151/82
f 96/152/83 97/153/84 98/154/85
f 99/155/86 100/156/86 101/157/86
f 102/158/87 97/159/87 103/160/87
f 102/158/88 94/150/88 104/161/88
f 91/147/89 102/158/89 104/161/89
f 105/162/90 102/158/90 106/163/90
f 99/155/91 107/164/91 108/165/91
f 109/166/92 99/155/92 108/165/92
f 110/167/93 99/155/93 111/168/93
f 96/152/94 107/169/94 101/170/94
f 100/156/95 96/152/95 101/170/95
f 94/150/81 96/152/96 95/151/82
f 112/171/97 95/151/98 100/156/99
f 110/167/100 93/149/100 112/171/100
f 92/148/101 104/161/101 93/149/101
f 90/146/102 110/167/102 111/172/102
f 109/173/103 90/146/103 111/172/103
f 105/174/104 90/146/104 88/144/104
f 89/145/105 109/173/105 108/175/105
f 98/176/106 108/175/107 107/177/108
f 97/178/84 89/145/109 98/176/85
f 87/143/110 105/174/110 88/144/110
f 90/146/111 106/179/111 91/147/111
f 93/149/112 104/161/112 94/150/112
f 96/152/113 103/180/113 97/153/113
f 99/155/114 112/171/114 100/156/114
f 102/158/115 87/181/115 97/159/115
f 102/158/116 103/160/116 94/150/116
f 91/147/117 106/163/117 102/158/117
f 105/162/118 87/181/118 102/158/118
f 99/155/119 101/157/119 107/164/119
f 109/166/120 111/168/120 99/155/120
f 110/167/121 112/171/121 99/155/121
f 96/152/122 98/154/106 107/169/108
f 100/156/99 95/151/98 96/152/123
f 94/150/124 103/180/124 96/152/124
f 112/171/125 93/149/125 95/151/125
f 110/167/100 92/148/100 93/149/100
f 92/148/126 91/147/126 104/161/126
f 90/146/127 92/148/127 110/167/127
f 109/173/128 88/144/128 90/146/128
f 105/174/129 106/179/129 90/146/129
f 89/145/105 88/144/105 109/173/105
f 98/176/130 89/145/130 108/175/130
f 97/178/131 87/143/131 89/145/131
